<svg version="1.1" id="Layer_1" xmlns="http://www.w3.org/2000/svg" xmlns:xlink="http://www.w3.org/1999/xlink" x="0px" y="0px"
	 width="100%" viewBox="0 0 307 310" enable-background="new 0 0 307 310" xml:space="preserve">
<path fill="#010202" opacity="1.000000" stroke="none" 
	d="
M308.000000,110.000000 
	C308.000000,177.333328 308.000000,244.166672 308.000000,311.000000 
	C205.666672,311.000000 103.333336,311.000000 1.000000,311.000000 
	C1.000000,207.666672 1.000000,104.333336 1.000000,1.000000 
	C103.333336,1.000000 205.666672,1.000000 308.000000,1.000000 
	C308.000000,37.166668 308.000000,73.333336 308.000000,110.000000 
M6.115840,29.861015 
	C6.064635,119.702568 6.009159,209.544128 5.996536,299.385681 
	C5.996311,300.987335 6.509879,302.589020 7.152355,304.865845 
	C8.074347,305.126038 8.997135,305.616302 9.918222,305.613129 
	C45.509453,305.490265 81.101601,305.439270 116.691208,305.114044 
	C136.369980,304.934235 155.867462,302.920837 174.723999,296.874878 
	C193.961243,290.706848 211.365128,281.362518 225.144913,266.492004 
	C225.144913,266.492004 225.545731,266.597778 225.971527,266.286255 
	C226.242950,265.854706 226.514359,265.423126 227.476898,264.756500 
	C240.151443,259.465057 252.092316,252.743927 262.293640,243.610123 
	C292.773315,216.320023 307.306976,182.016754 303.534454,141.192902 
	C299.599731,98.613472 277.222229,67.372490 240.334213,46.523453 
	C230.730774,41.095608 220.212097,37.287086 209.713547,32.210411 
	C207.810257,30.874973 205.986023,29.406080 203.991638,28.224388 
	C179.443558,13.679347 152.500687,7.707903 124.357246,7.247645 
	C89.249352,6.673488 54.127674,6.942868 19.011950,6.846283 
	C16.016365,6.838045 13.019469,6.867032 10.025634,6.787019 
	C7.106963,6.709014 5.837280,7.878382 5.950357,10.953856 
	C6.170286,16.935488 6.105019,22.927607 6.115840,29.861015 
z"/>
<path fill="#77BCD9" opacity="1.000000" stroke="none" 
	d="
M210.113785,32.734810 
	C220.212097,37.287086 230.730774,41.095608 240.334213,46.523453 
	C277.222229,67.372490 299.599731,98.613472 303.534454,141.192902 
	C307.306976,182.016754 292.773315,216.320023 262.293640,243.610123 
	C252.092316,252.743927 240.151443,259.465057 226.900940,265.010376 
	C226.065231,265.708740 225.805481,266.153259 225.545715,266.597778 
	C225.545731,266.597778 225.144913,266.492004 224.926697,266.436890 
	C223.419861,266.536346 222.022186,266.420013 220.859604,266.887909 
	C210.209442,271.173920 199.067032,272.937378 187.694153,272.957031 
	C127.533562,273.061005 67.372734,273.028656 7.159263,272.574249 
	C7.085014,226.672180 7.037275,181.239426 7.050439,135.806656 
	C7.060565,100.859802 7.147335,65.912964 7.655982,30.979069 
	C64.323395,31.002609 120.535042,30.942900 176.746063,31.103720 
	C184.678513,31.126413 192.603241,32.300861 200.540970,32.788940 
	C203.718781,32.984344 206.922089,32.765240 210.113785,32.734810 
z"/>
<path fill="#7DC1F5" opacity="1.000000" stroke="none" 
	d="
M7.211986,273.043549 
	C67.372734,273.028656 127.533562,273.061005 187.694153,272.957031 
	C199.067032,272.937378 210.209442,271.173920 220.859604,266.887909 
	C222.022186,266.420013 223.419861,266.536346 225.121613,266.507507 
	C211.365128,281.362518 193.961243,290.706848 174.723999,296.874878 
	C155.867462,302.920837 136.369980,304.934235 116.691208,305.114044 
	C81.101601,305.439270 45.509453,305.490265 9.918222,305.613129 
	C8.997135,305.616302 8.074347,305.126038 7.052961,304.052002 
	C7.039708,293.173279 7.125847,283.108429 7.211986,273.043549 
z"/>
<path fill="#7DC2F6" opacity="1.000000" stroke="none" 
	d="
M209.913666,32.472610 
	C206.922089,32.765240 203.718781,32.984344 200.540970,32.788940 
	C192.603241,32.300861 184.678513,31.126413 176.746063,31.103720 
	C120.535042,30.942900 64.323395,31.002609 7.596005,30.680162 
	C6.772675,29.883995 6.465281,29.399689 6.157887,28.915380 
	C6.105019,22.927607 6.170286,16.935488 5.950357,10.953856 
	C5.837280,7.878382 7.106963,6.709014 10.025634,6.787019 
	C13.019469,6.867032 16.016365,6.838045 19.011950,6.846283 
	C54.127674,6.942868 89.249352,6.673488 124.357246,7.247645 
	C152.500687,7.707903 179.443558,13.679347 203.991638,28.224388 
	C205.986023,29.406080 207.810257,30.874973 209.913666,32.472610 
z"/>
<path fill="#546776" opacity="1.000000" stroke="none" 
	d="
M6.136864,29.388199 
	C6.465281,29.399689 6.772675,29.883995 7.140045,30.667210 
	C7.147335,65.912964 7.060565,100.859802 7.050439,135.806656 
	C7.037275,181.239426 7.085014,226.672180 7.159264,272.574249 
	C7.125847,283.108429 7.039708,293.173279 6.868638,303.714417 
	C6.509879,302.589020 5.996311,300.987335 5.996536,299.385681 
	C6.009159,209.544128 6.064635,119.702568 6.136864,29.388199 
z"/>
<path fill="#7DC1F5" opacity="1.000000" stroke="none" 
	d="
M225.758621,266.442017 
	C225.805481,266.153259 226.065231,265.708740 226.555389,265.127899 
	C226.514359,265.423126 226.242950,265.854706 225.758621,266.442017 
z"/>
</svg>